<?xml version="1.0" encoding="UTF-8"?>
<svg id="_圖層_1" data-name="圖層_1" xmlns="http://www.w3.org/2000/svg" xmlns:xlink="http://www.w3.org/1999/xlink" viewBox="0 0 305.14 59.18">
  <defs>
    <style>
      .cls-1 {
        fill: #040000;
      }
    </style>
    <symbol id="Logomark_a" viewBox="0 0 147.31 112.64">
      <path class="cls-1" d="M5.68,75.1c-.18.24-.16.58.06.79,11.33,10.79,40.97,36.75,63.69,36.75,3.59,0,7.09-.49,10.16-2.11,6.82-3.6,7.88-11.06,7.93-14.46,0-.65.74-1.02,1.27-.64,12.63,9.06,27.52,17.21,40.25,17.21,3.59,0,7.01-.65,10.16-2.11,4.98-2.31,7.85-6.64,8.09-12.19.81-18.66-27.8-48.11-71.65-74.12-5.67-3.02-6.19-9.36-3.45-12.46,10.87-12.34,47.91,18.28,65.63,36.19.19.19.5.11.59-.13l3.04-8.09c.04-.09.09-.18.16-.25l.94-1.03c.22-.24.22-.61-.02-.83-12.55-12.04-51.39-46.36-74.81-35.5-4.98,2.31-7.85,6.64-8.09,12.19-.04.89,0,1.82.09,2.76.04.43-.41.71-.76.46C42.68,5.77,22.54-4.58,8.11,2.11,3.13,4.42.26,8.75.02,14.3c-.83,19.14,29.29,49.63,75.06,76.12,2.89,1.85,4.61,8.19.04,10.46-14.7,7.3-47.89-18.3-65.57-36.13-.2-.2-.54-.1-.6.18l-2.02,8.4c-.03.1-.07.2-.14.29l-1.11,1.48ZM134.73,100.88c-14.22,7.05-45.71-16.66-63.74-34.32-12.56-13.66-31.58-28.49-54.93-42.34-2.82-1.67-8.14-9.27-3.46-13.16C24.24,1.38,58.29,28.41,76.32,46.07c13.17,14.32,33.44,29.93,58.37,44.35,2.64,1.65,3.99,8.51.04,10.46ZM66.01,75.01c-18.95-12.12-27.23-18.78-42.95-35.52-.13-.14.05-.36.21-.25,19.25,12.62,27.53,19.41,42.94,35.51.14.14-.05.36-.21.26ZM125.26,74.96c-18.95-12.12-27.23-18.78-42.95-35.52-.13-.14.05-.36.21-.25,19.25,12.62,27.53,19.41,42.94,35.51.14.14-.05.36-.21.26Z"/>
    </symbol>
  </defs>
  <g>
    <g>
      <path d="M62.13,37.68c-1.9,0-3.57-.09-5.04-.26-1.42-.17-2.45-.34-3.1-.51-.03,0-.06-.04-.06-.07l-.47-2.99c-.01-.08.08-.14.15-.08.27.22.67.46,1.21.71.69.31,1.6.58,2.75.8,1.15.22,2.51.33,4.1.33,1.43,0,2.51-.1,3.25-.3.74-.2,1.24-.48,1.51-.84s.4-.77.4-1.24c0-.56-.23-1-.68-1.33-.45-.33-1.13-.6-2.02-.8-.9-.2-2.01-.38-3.33-.54-1.72-.23-3.1-.53-4.15-.9-1.04-.37-1.8-.87-2.27-1.5-.47-.63-.7-1.42-.7-2.38,0-.82.25-1.55.74-2.19.5-.64,1.25-1.15,2.26-1.53,1.01-.37,2.3-.56,3.86-.56,1.81,0,3.38.09,4.72.26,1.3.17,2.23.34,2.8.51.03,0,.05.03.06.06l.71,2.61c.02.08-.06.14-.13.1-.36-.19-.86-.39-1.5-.6-.76-.24-1.67-.45-2.73-.61-1.06-.17-2.24-.25-3.55-.25-1.08,0-1.94.08-2.57.24-.63.16-1.09.39-1.36.69-.27.3-.4.67-.4,1.11,0,.57.21,1.04.64,1.38.43.35,1.05.62,1.88.81.83.19,1.83.36,3.01.5,1.88.21,3.37.5,4.49.89,1.11.38,1.91.9,2.4,1.54.49.64.73,1.48.73,2.51,0,.68-.16,1.29-.48,1.84-.32.55-.8,1.02-1.45,1.41-.64.39-1.44.69-2.39.89-.95.2-2.05.3-3.3.3Z"/>
      <path d="M88.2,37.06c.1-.8.15-1.61.15-2.42v-3.38c0-.4-.05-.63-.14-.69-.1-.06-.4-.09-.9-.09h-7.8c-.52,0-.83.03-.93.1-.1.07-.14.3-.14.68v3.38c0,.81.05,1.62.15,2.42l.04.28s-.03.08-.07.08h-3.16s-.07-.04-.07-.08l.04-.28c.1-.8.15-1.61.15-2.42v-10.1c0-.81-.05-1.62-.15-2.42l-.04-.28s.03-.08.07-.08h3.16s.07.04.07.08l-.04.33c-.1.79-.15,1.58-.15,2.38v3.06c0,.38.05.61.14.68.1.07.4.1.93.1h7.8c.52,0,.83-.03.91-.09.09-.06.13-.29.13-.69v-3.07c0-.81-.05-1.62-.15-2.42l-.04-.28s.03-.08.07-.08h3.16s.07.04.07.08l-.04.33c-.1.79-.15,1.58-.15,2.37v10.11c0,.81.05,1.61.15,2.41l.04.29s-.03.08-.07.08h-3.16s-.07-.04-.07-.08l.04-.28Z"/>
      <path d="M109.54,30.36c-.01.07-.07.11-.14.11h-7.32c-.5,0-.8.03-.9.09-.1.06-.14.29-.14.69v3.24c0,.4.04.64.13.7.09.07.39.1.91.1h7.59c1.01,0,1.82-.12,2.44-.35.49-.19.85-.37,1.07-.55.05-.04.12,0,.11.07l-.48,2.89s-.03.06-.07.06h-14.75s-.07-.04-.07-.08l.04-.28c.1-.8.15-1.61.15-2.42v-10.1c0-.81-.05-1.62-.15-2.42l-.04-.28s.03-.08.07-.08h14.2s.06.02.07.06l.49,2.85c0,.05-.04.1-.09.08-.45-.18-1.18-.37-2.18-.57-1.1-.22-2.42-.33-3.97-.33h-4.41c-.52,0-.83.04-.93.12-.1.08-.14.3-.14.67v2.98c0,.38.05.61.14.68.1.07.4.1.9.1h4.31c1.01,0,1.82-.06,2.44-.17.51-.09.87-.19,1.09-.29.05-.02.11.02.1.08l-.47,2.35Z"/>
      <path d="M131.29,21.76h3.16s.07.04.07.08l-.04.35c-.09.77-.14,1.54-.14,2.32,0,2.37,0,7.73,0,10.14,0,.81.05,1.61.15,2.41l.04.29s-.03.08-.07.08h-2.92s-.06-.02-.07-.05c-.02-.08-.09-.22-.21-.43-.16-.27-.44-.65-.84-1.14-.26-.33-.64-.8-1.13-1.4-.5-.6-1.06-1.29-1.68-2.06-.63-.77-1.29-1.59-2-2.44-.7-.85-1.4-1.71-2.09-2.56-.69-.85-1.34-1.64-1.94-2.38h-.08v9.67c0,.81.05,1.62.15,2.42l.04.28s-.03.08-.07.08h-3.16s-.07-.04-.07-.08l.04-.28c.1-.8.15-1.61.15-2.42v-10.1c0-.81-.05-1.62-.15-2.42l-.04-.28s.03-.08.07-.08h3.55s.06.02.07.05c.02.08.08.22.19.42.15.26.42.64.82,1.15.12.16.38.47.77.94.39.47.88,1.05,1.47,1.74.59.69,1.23,1.44,1.92,2.25.69.81,1.38,1.63,2.09,2.45.7.83,1.38,1.61,2.02,2.36h.05s0-6,0-8.61c0-.79-.05-1.58-.15-2.36l-.04-.3s.03-.08.07-.08Z"/>
    </g>
    <g>
      <path d="M174.52,37.68c-2.99,0-5.15-.72-6.48-2.15-1.33-1.44-2-3.44-2-6.02,0-1.65.29-3.08.87-4.27.58-1.19,1.5-2.11,2.74-2.77,1.24-.65,2.87-.98,4.87-.98h.81c1.96,0,3.56.32,4.79.97,1.23.64,2.13,1.57,2.7,2.77.57,1.2.86,2.63.86,4.28,0,2.58-.66,4.58-1.98,6.02-1.32,1.44-3.44,2.15-6.37,2.15h-.81ZM174.78,35.57h.29c1.3,0,2.37-.19,3.21-.57.83-.38,1.46-1.01,1.87-1.89.41-.88.61-2.08.61-3.59s-.21-2.65-.63-3.51c-.42-.86-1.04-1.48-1.88-1.85-.84-.37-1.9-.56-3.18-.56h-.29c-1.3,0-2.39.19-3.25.57-.86.38-1.51,1.01-1.93,1.88-.43.87-.64,2.03-.64,3.47s.21,2.69.64,3.58c.43.89,1.07,1.52,1.94,1.91.87.38,1.95.57,3.24.57Z"/>
      <path d="M226.8,37.42h-3.03c-.12,0-.22-.1-.22-.22v-.38l.05-.73-.05-.05c-.28.3-.64.57-1.1.82-.45.25-1.06.45-1.81.6-.76.15-1.73.22-2.91.22-2.37,0-4.23-.66-5.6-1.97-1.37-1.31-2.05-3.34-2.05-6.07,0-1.6.3-3.02.91-4.24s1.57-2.18,2.9-2.87c1.32-.69,3.04-1.03,5.14-1.03,1.65,0,3.02.09,4.11.26,1.04.17,1.76.33,2.17.5.04.01.06.05.07.08l.46,2.55c.02.1-.09.17-.17.12-.49-.3-1.24-.6-2.26-.9-1.18-.35-2.63-.52-4.33-.52-1.39,0-2.54.26-3.44.77-.9.51-1.57,1.22-2,2.13-.43.91-.64,1.96-.64,3.16s.2,2.32.59,3.21c.39.89,1.01,1.56,1.87,2.02.85.46,1.97.69,3.34.69,1.18,0,2.12-.13,2.82-.39s1.19-.61,1.49-1.06c.3-.44.44-.93.44-1.45v-.68c0-.4-.03-.63-.09-.69-.06-.06-.29-.09-.69-.09h-.83c-.97,0-1.75.06-2.34.18-.42.09-.72.17-.92.26-.08.04-.17-.03-.16-.12l.22-2.16c.01-.11.11-.2.22-.2h7.85c.08,0,.14.08.11.15h0c-.31.94-.47,1.91-.47,2.9v2.14c0,.99.16,1.96.47,2.9h0c.03.08-.03.15-.11.15Z"/>
      <path d="M157.68,21.76h3.16s.07.04.07.08l-.04.35c-.09.77-.14,1.54-.14,2.32,0,2.37,0,7.73,0,10.14,0,.81.05,1.61.15,2.41l.04.29s-.03.08-.07.08h-2.92s-.06-.02-.07-.05c-.02-.08-.09-.22-.21-.43-.16-.27-.44-.65-.84-1.14-.26-.33-.64-.8-1.13-1.4-.5-.6-1.06-1.29-1.68-2.06-.63-.77-1.29-1.59-2-2.44-.7-.85-1.4-1.71-2.09-2.56-.69-.85-1.34-1.64-1.94-2.38h-.08v9.67c0,.81.05,1.62.15,2.42l.04.28s-.03.08-.07.08h-3.16s-.07-.04-.07-.08l.04-.28c.1-.8.15-1.61.15-2.42v-10.1c0-.81-.05-1.62-.15-2.42l-.04-.28s.03-.08.07-.08h3.55s.06.02.07.05c.02.08.08.22.19.42.15.26.42.64.82,1.15.12.16.38.47.77.94.39.47.88,1.05,1.47,1.74.59.69,1.23,1.44,1.92,2.25.69.81,1.38,1.63,2.09,2.45.7.83,1.38,1.61,2.02,2.36h.05s0-6,0-8.61c0-.79-.05-1.58-.15-2.36l-.04-.3s.03-.08.07-.08Z"/>
      <path d="M201.72,21.76h3.16s.07.04.07.08l-.04.35c-.09.77-.14,1.54-.14,2.32,0,2.37,0,7.73,0,10.14,0,.81.05,1.61.15,2.41l.04.29s-.03.08-.07.08h-2.92s-.06-.02-.07-.05c-.02-.08-.09-.22-.21-.43-.16-.27-.44-.65-.84-1.14-.26-.33-.64-.8-1.13-1.4s-1.06-1.29-1.68-2.06c-.63-.77-1.29-1.59-2-2.44-.7-.85-1.4-1.71-2.09-2.56-.69-.85-1.34-1.64-1.94-2.38h-.08v9.67c0,.81.05,1.62.15,2.42l.04.28s-.03.08-.07.08h-3.16s-.07-.04-.07-.08l.04-.28c.1-.8.15-1.61.15-2.42v-10.1c0-.81-.05-1.62-.15-2.42l-.04-.28s.03-.08.07-.08h3.55s.06.02.07.05c.02.08.08.22.19.42.15.26.42.64.82,1.15.12.16.38.47.77.94.39.47.88,1.05,1.47,1.74.59.69,1.23,1.44,1.92,2.25.69.81,1.38,1.63,2.09,2.45.7.83,1.38,1.61,2.02,2.36h.05s0-6,0-8.61c0-.79-.05-1.58-.15-2.36l-.04-.3s.03-.08.07-.08Z"/>
    </g>
    <g>
      <path d="M281.98,34.6v-10.03c0-.83-.14-1.65-.41-2.43l-.03-.09c-.05-.14.06-.3.21-.3h3.39c.15,0,.26.15.21.3l-.05.13c-.27.77-.4,1.58-.4,2.39v10.02c0,.83.14,1.65.41,2.43l.03.09c.05.14-.06.3-.21.3h-3.39c-.15,0-.26-.15-.21-.3l.03-.09c.27-.78.41-1.6.41-2.43Z"/>
      <path d="M246.02,37.68c-1.9,0-3.57-.09-5.04-.26-1.42-.17-2.45-.34-3.1-.51-.03,0-.06-.04-.06-.07l-.47-2.99c-.01-.08.08-.14.15-.08.27.22.67.46,1.21.71.69.31,1.6.58,2.75.8,1.15.22,2.51.33,4.1.33,1.43,0,2.51-.1,3.25-.3.74-.2,1.24-.48,1.51-.84s.4-.77.4-1.24c0-.56-.23-1-.68-1.33-.45-.33-1.13-.6-2.02-.8-.9-.2-2.01-.38-3.33-.54-1.72-.23-3.1-.53-4.15-.9-1.04-.37-1.8-.87-2.27-1.5-.47-.63-.7-1.42-.7-2.38,0-.82.25-1.55.74-2.19.5-.64,1.25-1.15,2.26-1.53,1.01-.37,2.3-.56,3.86-.56,1.81,0,3.38.09,4.72.26,1.3.17,2.23.34,2.8.51.03,0,.05.03.06.06l.71,2.61c.02.08-.06.14-.13.1-.36-.19-.86-.39-1.5-.6-.76-.24-1.67-.45-2.73-.61-1.06-.17-2.24-.25-3.55-.25-1.08,0-1.94.08-2.57.24-.63.16-1.09.39-1.36.69-.27.3-.4.67-.4,1.11,0,.57.21,1.04.64,1.38.43.35,1.05.62,1.88.81.83.19,1.83.36,3.01.5,1.88.21,3.37.5,4.49.89,1.11.38,1.91.9,2.4,1.54.49.64.73,1.48.73,2.51,0,.68-.16,1.29-.48,1.84-.32.55-.8,1.02-1.45,1.41-.64.39-1.44.69-2.39.89-.95.2-2.05.3-3.3.3Z"/>
      <path d="M272.09,37.06c.1-.8.15-1.61.15-2.42v-3.38c0-.4-.05-.63-.14-.69-.1-.06-.4-.09-.9-.09h-7.8c-.52,0-.83.03-.93.1-.1.07-.14.3-.14.68v3.38c0,.81.05,1.62.15,2.42l.04.28s-.03.08-.07.08h-3.16s-.07-.04-.07-.08l.04-.28c.1-.8.15-1.61.15-2.42v-10.1c0-.81-.05-1.62-.15-2.42l-.04-.28s.03-.08.07-.08h3.16s.07.04.07.08l-.04.33c-.1.79-.15,1.58-.15,2.38v3.06c0,.38.05.61.14.68.1.07.4.1.93.1h7.8c.52,0,.83-.03.91-.09.09-.06.13-.29.13-.69v-3.07c0-.81-.05-1.62-.15-2.42l-.04-.28s.03-.08.07-.08h3.16s.07.04.07.08l-.04.33c-.1.79-.15,1.58-.15,2.37v10.11c0,.81.05,1.61.15,2.41l.04.29s-.03.08-.07.08h-3.16s-.07-.04-.07-.08l.04-.28Z"/>
    </g>
  </g>
  <use width="147.31" height="112.64" transform="translate(19.78 19.78) scale(.17)" xlink:href="#Logomark_a"/>
</svg>