<?xml version="1.0" encoding="UTF-8"?>
<svg id="_圖層_1" data-name="圖層_1" xmlns="http://www.w3.org/2000/svg" viewBox="0 0 284.93 36.61">
  <defs>
    <style>
      .cls-1 {
        fill: #101419;
      }
    </style>
  </defs>
  <path class="cls-1" d="M126.67,32.47c.25-5.85-9.37-15.85-23.41-24.34-1.23-.74-2.05-2-2.19-3.37-.02-.19-.03-.36-.02-.53.03-.8.37-1.32,1.06-1.64,2.85-1.34,7.77.37,13.86,4.83,4.15,3.04,7.68,6.48,8.62,7.43l1.53-1.49c-.95-.96-4.51-4.45-8.87-7.64-6.96-5.09-12.36-6.8-16.06-5.05-1.4.66-2.21,1.9-2.28,3.48-.02.41.02.85.1,1.32.05.27-.07.53-.3.67-.23.14-.52.13-.74-.03l-.54-.39c-6.96-5.09-12.36-6.8-16.06-5.05-1.4.66-2.21,1.9-2.28,3.48-.25,5.85,9.37,15.85,23.41,24.34,1.23.74,2.05,2,2.19,3.37.02.19.03.36.02.53-.03.8-.37,1.32-1.06,1.64-2.85,1.34-7.77-.37-13.86-4.83-4.18-3.05-7.68-6.48-8.62-7.43l-1.53,1.49c.95.96,4.5,4.44,8.87,7.64,6.93,5.07,12.37,6.79,16.06,5.05,1.4-.66,2.21-1.9,2.28-3.48.02-.41-.02-.85-.1-1.32-.05-.27.07-.53.3-.67.11-.07.23-.1.35-.1.14,0,.27.04.39.13l.54.39c6.93,5.07,12.37,6.79,16.06,5.05,1.4-.66,2.21-1.9,2.28-3.48ZM98.66,23.41c-4.84-3.26-8.82-6.55-11.83-9.78l-1.86-1.99,2.26,1.52c4.8,3.22,8.76,6.48,11.77,9.69l2.2,2.28-2.55-1.71ZM118.38,23.3c-4.84-3.26-8.82-6.55-11.83-9.78l-1.86-1.99,2.26,1.52c4.8,3.22,8.76,6.48,11.77,9.69l2.2,2.28-2.55-1.71ZM124.54,32.38c-.03.8-.37,1.32-1.06,1.64-.63.3-1.37.45-2.19.45-2.9,0-6.93-1.81-11.67-5.27-4.2-3.07-7.72-6.52-8.64-7.44h0s-.23-.24-.23-.24c-4.25-4.48-10.23-9.11-17.28-13.37-1.23-.74-2.06-2-2.22-3.35-.02-.2-.03-.39-.02-.56.03-.8.37-1.32,1.06-1.64,2.85-1.34,7.77.37,13.86,4.83,4.12,3.01,7.63,6.43,8.6,7.4h0s.27.27.27.27c4.25,4.48,10.23,9.11,17.28,13.37,1.23.74,2.06,2,2.22,3.35.02.2.03.39.02.56Z"/>
  <path class="cls-1" d="M106.9,32.47c.25-5.85-9.37-15.85-23.41-24.34-1.23-.74-2.05-2-2.19-3.37-.02-.19-.03-.36-.02-.53.03-.8.37-1.32,1.06-1.64,2.85-1.34,7.77.37,13.86,4.83,4.15,3.04,7.68,6.48,8.62,7.43l1.53-1.49c-.95-.96-4.51-4.45-8.87-7.64-6.96-5.09-12.36-6.8-16.06-5.05-1.4.66-2.21,1.9-2.28,3.48-.02.41.02.85.1,1.32.05.27-.07.53-.3.67-.23.14-.52.13-.74-.03l-.54-.39c-6.96-5.09-12.36-6.8-16.06-5.05-1.4.66-2.21,1.9-2.28,3.48-.25,5.85,9.37,15.85,23.41,24.34,1.23.74,2.05,2,2.19,3.37.02.19.03.36.02.53-.03.8-.37,1.32-1.06,1.64-2.85,1.34-7.77-.37-13.86-4.83-4.18-3.05-7.68-6.48-8.62-7.43l-1.53,1.49c.95.96,4.5,4.44,8.87,7.64,6.93,5.07,12.37,6.79,16.06,5.05,1.4-.66,2.21-1.9,2.28-3.48.02-.41-.02-.85-.1-1.32-.05-.27.07-.53.3-.67.11-.07.23-.1.35-.1.14,0,.27.04.39.13l.54.39c6.93,5.07,12.37,6.79,16.06,5.05,1.4-.66,2.21-1.9,2.28-3.48ZM78.88,23.41c-4.84-3.26-8.82-6.55-11.83-9.78l-1.86-1.99,2.26,1.52c4.8,3.22,8.76,6.48,11.77,9.69l2.2,2.28-2.55-1.71ZM98.61,23.3c-4.84-3.26-8.82-6.55-11.83-9.78l-1.86-1.99,2.26,1.52c4.8,3.22,8.76,6.48,11.77,9.69l2.2,2.28-2.55-1.71ZM104.77,32.38c-.03.8-.37,1.32-1.06,1.64-.63.3-1.37.45-2.19.45-2.9,0-6.93-1.81-11.67-5.27-4.2-3.07-7.72-6.52-8.64-7.44h0s-.23-.24-.23-.24c-4.25-4.48-10.23-9.11-17.28-13.37-1.23-.74-2.06-2-2.22-3.35-.02-.2-.03-.39-.02-.56.03-.8.37-1.32,1.06-1.64,2.85-1.34,7.77.37,13.86,4.83,4.12,3.01,7.63,6.43,8.6,7.4h0s.27.27.27.27c4.25,4.48,10.23,9.11,17.28,13.37,1.23.74,2.06,2,2.22,3.35.02.2.03.39.02.56Z"/>
  <path class="cls-1" d="M87.13,32.47c.25-5.85-9.37-15.85-23.41-24.34-1.23-.74-2.05-2-2.19-3.37-.02-.19-.03-.36-.02-.53.03-.8.37-1.32,1.06-1.64,2.85-1.34,7.77.37,13.86,4.83,4.15,3.04,7.68,6.48,8.62,7.43l1.53-1.49c-.95-.96-4.51-4.45-8.87-7.64-6.96-5.09-12.36-6.8-16.06-5.05-1.4.66-2.21,1.9-2.28,3.48-.02.41.02.85.1,1.32.05.27-.07.53-.3.67-.23.14-.52.13-.74-.03l-.54-.39C50.93.62,45.53-1.08,41.83.66c-1.4.66-2.21,1.9-2.28,3.48-.25,5.85,9.37,15.85,23.41,24.34,1.23.74,2.05,2,2.19,3.37.02.19.03.36.02.53-.03.8-.37,1.32-1.06,1.64-2.85,1.34-7.77-.37-13.86-4.83-4.18-3.05-7.68-6.48-8.62-7.43l-1.53,1.49c.95.96,4.5,4.44,8.87,7.64,6.93,5.07,12.37,6.79,16.06,5.05,1.4-.66,2.21-1.9,2.28-3.48.02-.41-.02-.85-.1-1.32-.05-.27.07-.53.3-.67.11-.07.23-.1.35-.1.14,0,.27.04.39.13l.54.39c6.93,5.07,12.37,6.79,16.06,5.05,1.4-.66,2.21-1.9,2.28-3.48ZM59.11,23.41c-4.84-3.26-8.82-6.55-11.83-9.78l-1.86-1.99,2.26,1.52c4.8,3.22,8.76,6.48,11.77,9.69l2.2,2.28-2.55-1.71ZM78.83,23.3c-4.84-3.26-8.82-6.55-11.83-9.78l-1.86-1.99,2.26,1.52c4.8,3.22,8.76,6.48,11.77,9.69l2.2,2.28-2.55-1.71ZM84.99,32.38c-.03.8-.37,1.32-1.06,1.64-.63.3-1.37.45-2.19.45-2.9,0-6.93-1.81-11.67-5.27-4.2-3.07-7.72-6.52-8.64-7.44h0s-.23-.24-.23-.24c-4.25-4.48-10.23-9.11-17.28-13.37-1.23-.74-2.06-2-2.22-3.35-.02-.2-.03-.39-.02-.56.03-.8.37-1.32,1.06-1.64,2.85-1.34,7.77.37,13.86,4.83,4.12,3.01,7.63,6.43,8.6,7.4h0s.27.27.27.27c4.25,4.48,10.23,9.11,17.28,13.37,1.23.74,2.06,2,2.22,3.35.02.2.03.39.02.56Z"/>
  <path class="cls-1" d="M67.35,32.47c.25-5.85-9.37-15.85-23.41-24.34-1.23-.74-2.05-2-2.19-3.37-.02-.19-.03-.36-.02-.53.03-.8.37-1.32,1.06-1.64,2.85-1.34,7.77.37,13.86,4.83,4.15,3.04,7.68,6.48,8.62,7.43l1.53-1.49c-.95-.96-4.51-4.45-8.87-7.64C50.98.62,45.58-1.08,41.88.66c-1.4.66-2.21,1.9-2.28,3.48-.02.41.02.85.1,1.32.05.27-.07.53-.3.67-.23.14-.52.13-.74-.03l-.54-.39C31.16.62,25.76-1.08,22.06.66c-1.4.66-2.21,1.9-2.28,3.48-.25,5.85,9.37,15.85,23.41,24.34,1.23.74,2.05,2,2.19,3.37.02.19.03.36.02.53-.03.8-.37,1.32-1.06,1.64-2.85,1.34-7.77-.37-13.86-4.83-4.18-3.05-7.68-6.48-8.62-7.43l-1.53,1.49c.95.96,4.5,4.44,8.87,7.64,6.93,5.07,12.37,6.79,16.06,5.05,1.4-.66,2.21-1.9,2.28-3.48.02-.41-.02-.85-.1-1.32-.05-.27.07-.53.3-.67.11-.07.23-.1.35-.1.14,0,.27.04.39.13l.54.39c6.93,5.07,12.37,6.79,16.06,5.05,1.4-.66,2.21-1.9,2.28-3.48ZM39.34,23.41c-4.84-3.26-8.82-6.55-11.83-9.78l-1.86-1.99,2.26,1.52c4.8,3.22,8.76,6.48,11.77,9.69l2.2,2.28-2.55-1.71ZM59.06,23.3c-4.84-3.26-8.82-6.55-11.83-9.78l-1.86-1.99,2.26,1.52c4.8,3.22,8.76,6.48,11.77,9.69l2.2,2.28-2.55-1.71ZM65.22,32.38c-.03.8-.37,1.32-1.06,1.64-.63.3-1.37.45-2.19.45-2.9,0-6.93-1.81-11.67-5.27-4.2-3.07-7.72-6.52-8.64-7.44h0s-.23-.24-.23-.24c-4.25-4.48-10.23-9.11-17.28-13.37-1.23-.74-2.06-2-2.22-3.35-.02-.2-.03-.39-.02-.56.03-.8.37-1.32,1.06-1.64,2.85-1.34,7.77.37,13.86,4.83,4.12,3.01,7.63,6.43,8.6,7.4h0s.27.27.27.27c4.25,4.48,10.23,9.11,17.28,13.37,1.23.74,2.06,2,2.22,3.35.02.2.03.39.02.56Z"/>
  <path class="cls-1" d="M47.58,32.47c.25-5.85-9.37-15.85-23.41-24.34-1.23-.74-2.05-2-2.19-3.37-.02-.19-.03-.36-.02-.53.03-.8.37-1.32,1.06-1.64,2.85-1.34,7.77.37,13.86,4.83,4.15,3.04,7.68,6.48,8.62,7.43l1.53-1.49c-.95-.96-4.51-4.45-8.87-7.64C31.21.62,25.8-1.08,22.11.66c-1.4.66-2.21,1.9-2.28,3.48-.02.41.02.85.1,1.32.05.27-.07.53-.3.67-.23.14-.52.13-.74-.03l-.54-.39C11.39.62,5.98-1.08,2.29.66.88,1.32.07,2.56,0,4.14c-.25,5.85,9.37,15.85,23.41,24.34,1.23.74,2.05,2,2.19,3.37.02.19.03.36.02.53-.03.8-.37,1.32-1.06,1.64-2.85,1.34-7.77-.37-13.86-4.83-4.18-3.05-7.68-6.48-8.62-7.43l-1.53,1.49c.95.96,4.5,4.44,8.87,7.64,6.93,5.07,12.37,6.79,16.06,5.05,1.4-.66,2.21-1.9,2.28-3.48.02-.41-.02-.85-.1-1.32-.05-.27.07-.53.3-.67.11-.07.23-.1.35-.1.14,0,.27.04.39.13l.54.39c6.93,5.07,12.37,6.79,16.06,5.05,1.4-.66,2.21-1.9,2.28-3.48ZM19.56,23.41c-4.84-3.26-8.82-6.55-11.83-9.78l-1.86-1.99,2.26,1.52c4.8,3.22,8.76,6.48,11.77,9.69l2.2,2.28-2.55-1.71ZM39.28,23.3c-4.84-3.26-8.82-6.55-11.83-9.78l-1.86-1.99,2.26,1.52c4.8,3.22,8.76,6.48,11.77,9.69l2.2,2.28-2.55-1.71ZM45.45,32.38c-.03.8-.37,1.32-1.06,1.64-.63.3-1.37.45-2.19.45-2.9,0-6.93-1.81-11.67-5.27-4.2-3.07-7.72-6.52-8.64-7.44h0s-.23-.24-.23-.24c-4.25-4.48-10.23-9.11-17.28-13.37-1.23-.74-2.06-2-2.22-3.35-.02-.2-.03-.39-.02-.56.03-.8.37-1.32,1.06-1.64,2.85-1.34,7.77.37,13.86,4.83,4.12,3.01,7.63,6.43,8.6,7.4h0s.27.27.27.27c4.25,4.48,10.23,9.11,17.28,13.37,1.23.74,2.06,2,2.22,3.35.02.2.03.39.02.56Z"/>
  <path class="cls-1" d="M205.8,32.47c.25-5.85-9.37-15.85-23.41-24.34-1.23-.74-2.05-2-2.19-3.37-.02-.19-.03-.36-.02-.53.03-.8.37-1.32,1.06-1.64,2.85-1.34,7.77.37,13.86,4.83,4.15,3.04,7.68,6.48,8.62,7.43l1.53-1.49c-.95-.96-4.51-4.45-8.87-7.64-6.96-5.09-12.36-6.8-16.06-5.05-1.4.66-2.21,1.9-2.28,3.48-.02.41.02.85.1,1.32.05.27-.07.53-.3.67-.23.14-.52.13-.74-.03l-.54-.39c-6.96-5.09-12.36-6.8-16.06-5.05-1.4.66-2.21,1.9-2.28,3.48-.25,5.85,9.37,15.85,23.41,24.34,1.23.74,2.05,2,2.19,3.37.02.19.03.36.02.53-.03.8-.37,1.32-1.06,1.64-2.85,1.34-7.77-.37-13.86-4.83-4.18-3.05-7.68-6.48-8.62-7.43l-1.53,1.49c.95.96,4.5,4.44,8.87,7.64,6.93,5.07,12.37,6.79,16.06,5.05,1.4-.66,2.21-1.9,2.28-3.48.02-.41-.02-.85-.1-1.32-.05-.27.07-.53.3-.67.11-.07.23-.1.35-.1.14,0,.27.04.39.13l.54.39c6.93,5.07,12.37,6.79,16.06,5.05,1.4-.66,2.21-1.9,2.28-3.48ZM177.78,23.41c-4.84-3.26-8.82-6.55-11.83-9.78l-1.86-1.99,2.26,1.52c4.8,3.22,8.76,6.48,11.77,9.69l2.2,2.28-2.55-1.71ZM197.51,23.3c-4.84-3.26-8.82-6.55-11.83-9.78l-1.86-1.99,2.26,1.52c4.8,3.22,8.76,6.48,11.77,9.69l2.2,2.28-2.55-1.71ZM203.67,32.38c-.03.8-.37,1.32-1.06,1.64-.63.3-1.37.45-2.19.45-2.9,0-6.93-1.81-11.67-5.27-4.2-3.07-7.72-6.52-8.64-7.44h0s-.23-.24-.23-.24c-4.25-4.48-10.23-9.11-17.28-13.37-1.23-.74-2.06-2-2.22-3.35-.02-.2-.03-.39-.02-.56.03-.8.37-1.32,1.06-1.64,2.85-1.34,7.77.37,13.86,4.83,4.12,3.01,7.63,6.43,8.6,7.4h0s.27.27.27.27c4.25,4.48,10.23,9.11,17.28,13.37,1.23.74,2.06,2,2.22,3.35.02.2.03.39.02.56Z"/>
  <path class="cls-1" d="M186.03,32.47c.25-5.85-9.37-15.85-23.41-24.34-1.23-.74-2.05-2-2.19-3.37-.02-.19-.03-.36-.02-.53.03-.8.37-1.32,1.06-1.64,2.85-1.34,7.77.37,13.86,4.83,4.15,3.04,7.68,6.48,8.62,7.43l1.53-1.49c-.95-.96-4.51-4.45-8.87-7.64-6.96-5.09-12.36-6.8-16.06-5.05-1.4.66-2.21,1.9-2.28,3.48-.02.41.02.85.1,1.32.05.27-.07.53-.3.67-.23.14-.52.13-.74-.03l-.54-.39c-6.96-5.09-12.36-6.8-16.06-5.05-1.4.66-2.21,1.9-2.28,3.48-.25,5.85,9.37,15.85,23.41,24.34,1.23.74,2.05,2,2.19,3.37.02.19.03.36.02.53-.03.8-.37,1.32-1.06,1.64-2.85,1.34-7.77-.37-13.86-4.83-4.18-3.05-7.68-6.48-8.62-7.43l-1.53,1.49c.95.96,4.5,4.44,8.87,7.64,6.93,5.07,12.37,6.79,16.06,5.05,1.4-.66,2.21-1.9,2.28-3.48.02-.41-.02-.85-.1-1.32-.05-.27.07-.53.3-.67.11-.07.23-.1.35-.1.14,0,.27.04.39.13l.54.39c6.93,5.07,12.37,6.79,16.06,5.05,1.4-.66,2.21-1.9,2.28-3.48ZM158.01,23.41c-4.84-3.26-8.82-6.55-11.83-9.78l-1.86-1.99,2.26,1.52c4.8,3.22,8.76,6.48,11.77,9.69l2.2,2.28-2.55-1.71ZM177.73,23.3c-4.84-3.26-8.82-6.55-11.83-9.78l-1.86-1.99,2.26,1.52c4.8,3.22,8.76,6.48,11.77,9.69l2.2,2.28-2.55-1.71ZM183.9,32.38c-.03.8-.37,1.32-1.06,1.64-.63.3-1.37.45-2.19.45-2.9,0-6.93-1.81-11.67-5.27-4.2-3.07-7.72-6.52-8.64-7.44h0s-.23-.24-.23-.24c-4.25-4.48-10.23-9.11-17.28-13.37-1.23-.74-2.06-2-2.22-3.35-.02-.2-.03-.39-.02-.56.03-.8.37-1.32,1.06-1.64,2.85-1.34,7.77.37,13.86,4.83,4.12,3.01,7.63,6.43,8.6,7.4h0s.27.27.27.27c4.25,4.48,10.23,9.11,17.28,13.37,1.23.74,2.06,2,2.22,3.35.02.2.03.39.02.56Z"/>
  <path class="cls-1" d="M166.26,32.47c.25-5.85-9.37-15.85-23.41-24.34-1.23-.74-2.05-2-2.19-3.37-.02-.19-.03-.36-.02-.53.03-.8.37-1.32,1.06-1.64,2.85-1.34,7.77.37,13.86,4.83,4.15,3.04,7.68,6.48,8.62,7.43l1.53-1.49c-.95-.96-4.51-4.45-8.87-7.64-6.96-5.09-12.36-6.8-16.06-5.05-1.4.66-2.21,1.9-2.28,3.48-.02.41.02.85.1,1.32.05.27-.07.53-.3.67-.23.14-.52.13-.74-.03l-.54-.39c-6.96-5.09-12.36-6.8-16.06-5.05-1.4.66-2.21,1.9-2.28,3.48-.25,5.85,9.37,15.85,23.41,24.34,1.23.74,2.05,2,2.19,3.37.02.19.03.36.02.53-.03.8-.37,1.32-1.06,1.64-2.85,1.34-7.77-.37-13.86-4.83-4.18-3.05-7.68-6.48-8.62-7.43l-1.53,1.49c.95.96,4.5,4.44,8.87,7.64,6.93,5.07,12.37,6.79,16.06,5.05,1.4-.66,2.21-1.9,2.28-3.48.02-.41-.02-.85-.1-1.32-.05-.27.07-.53.3-.67.11-.07.23-.1.35-.1.14,0,.27.04.39.13l.54.39c6.93,5.07,12.37,6.79,16.06,5.05,1.4-.66,2.21-1.9,2.28-3.48ZM138.24,23.41c-4.84-3.26-8.82-6.55-11.83-9.78l-1.86-1.99,2.26,1.52c4.8,3.22,8.76,6.48,11.77,9.69l2.2,2.28-2.55-1.71ZM157.96,23.3c-4.84-3.26-8.82-6.55-11.83-9.78l-1.86-1.99,2.26,1.52c4.8,3.22,8.76,6.48,11.77,9.69l2.2,2.28-2.55-1.71ZM164.12,32.38c-.03.8-.37,1.32-1.06,1.64-.63.3-1.37.45-2.19.45-2.9,0-6.93-1.81-11.67-5.27-4.2-3.07-7.72-6.52-8.64-7.44h0s-.23-.24-.23-.24c-4.25-4.48-10.23-9.11-17.28-13.37-1.23-.74-2.06-2-2.22-3.35-.02-.2-.03-.39-.02-.56.03-.8.37-1.32,1.06-1.64,2.85-1.34,7.77.37,13.86,4.83,4.12,3.01,7.63,6.43,8.6,7.4h0s.27.27.27.27c4.25,4.48,10.23,9.11,17.28,13.37,1.23.74,2.06,2,2.22,3.35.02.2.03.39.02.56Z"/>
  <path class="cls-1" d="M284.93,32.47c.25-5.85-9.37-15.85-23.41-24.34-1.23-.74-2.05-2-2.19-3.37-.02-.19-.03-.36-.02-.53.03-.8.37-1.32,1.06-1.64,2.85-1.34,7.77.37,13.86,4.83,4.15,3.04,7.68,6.48,8.62,7.43l1.53-1.49c-.95-.96-4.51-4.45-8.87-7.64-6.96-5.09-12.36-6.8-16.06-5.05-1.4.66-2.21,1.9-2.28,3.48-.02.41.02.85.1,1.32.05.27-.07.53-.3.67-.23.14-.52.13-.74-.03l-.54-.39c-6.96-5.09-12.36-6.8-16.06-5.05-1.4.66-2.21,1.9-2.28,3.48-.25,5.85,9.37,15.85,23.41,24.34,1.23.74,2.05,2,2.19,3.37.02.19.03.36.02.53-.03.8-.37,1.32-1.06,1.64-2.85,1.34-7.77-.37-13.86-4.83-4.18-3.05-7.68-6.48-8.62-7.43l-1.53,1.49c.95.96,4.5,4.44,8.87,7.64,6.93,5.07,12.37,6.79,16.06,5.05,1.4-.66,2.21-1.9,2.28-3.48.02-.41-.02-.85-.1-1.32-.05-.27.07-.53.3-.67.11-.07.23-.1.35-.1.14,0,.27.04.39.13l.54.39c6.93,5.07,12.37,6.79,16.06,5.05,1.4-.66,2.21-1.9,2.28-3.48ZM256.91,23.41c-4.84-3.26-8.82-6.55-11.83-9.78l-1.86-1.99,2.26,1.52c4.8,3.22,8.76,6.48,11.77,9.69l2.2,2.28-2.55-1.71ZM276.63,23.3c-4.84-3.26-8.82-6.55-11.83-9.78l-1.86-1.99,2.26,1.52c4.8,3.22,8.76,6.48,11.77,9.69l2.2,2.28-2.55-1.71ZM282.79,32.38c-.03.8-.37,1.32-1.06,1.64-.63.3-1.37.45-2.19.45-2.9,0-6.93-1.81-11.67-5.27-4.2-3.07-7.72-6.52-8.64-7.44h0s-.23-.24-.23-.24c-4.25-4.48-10.23-9.11-17.28-13.37-1.23-.74-2.06-2-2.22-3.35-.02-.2-.03-.39-.02-.56.03-.8.37-1.32,1.06-1.64,2.85-1.34,7.77.37,13.86,4.83,4.12,3.01,7.63,6.43,8.6,7.4h0s.27.27.27.27c4.25,4.48,10.23,9.11,17.28,13.37,1.23.74,2.06,2,2.22,3.35.02.2.03.39.02.56Z"/>
  <path class="cls-1" d="M265.15,32.47c.25-5.85-9.37-15.85-23.41-24.34-1.23-.74-2.05-2-2.19-3.37-.02-.19-.03-.36-.02-.53.03-.8.37-1.32,1.06-1.64,2.85-1.34,7.77.37,13.86,4.83,4.15,3.04,7.68,6.48,8.62,7.43l1.53-1.49c-.95-.96-4.51-4.45-8.87-7.64-6.96-5.09-12.36-6.8-16.06-5.05-1.4.66-2.21,1.9-2.28,3.48-.02.41.02.85.1,1.32.05.27-.07.53-.3.67-.23.14-.52.13-.74-.03l-.54-.39c-6.96-5.09-12.36-6.8-16.06-5.05-1.4.66-2.21,1.9-2.28,3.48-.25,5.85,9.37,15.85,23.41,24.34,1.23.74,2.05,2,2.19,3.37.02.19.03.36.02.53-.03.8-.37,1.32-1.06,1.64-2.85,1.34-7.77-.37-13.86-4.83-4.18-3.05-7.68-6.48-8.62-7.43l-1.53,1.49c.95.96,4.5,4.44,8.87,7.64,6.93,5.07,12.37,6.79,16.06,5.05,1.4-.66,2.21-1.9,2.28-3.48.02-.41-.02-.85-.1-1.32-.05-.27.07-.53.3-.67.11-.07.23-.1.35-.1.14,0,.27.04.39.13l.54.39c6.93,5.07,12.37,6.79,16.06,5.05,1.4-.66,2.21-1.9,2.28-3.48ZM237.14,23.41c-4.84-3.26-8.82-6.55-11.83-9.78l-1.86-1.99,2.26,1.52c4.8,3.22,8.76,6.48,11.77,9.69l2.2,2.28-2.55-1.71ZM256.86,23.3c-4.84-3.26-8.82-6.55-11.83-9.78l-1.86-1.99,2.26,1.52c4.8,3.22,8.76,6.48,11.77,9.69l2.2,2.28-2.55-1.71ZM263.02,32.38c-.03.8-.37,1.32-1.06,1.64-.63.3-1.37.45-2.19.45-2.9,0-6.93-1.81-11.67-5.27-4.2-3.07-7.72-6.52-8.64-7.44h0s-.23-.24-.23-.24c-4.25-4.48-10.23-9.11-17.28-13.37-1.23-.74-2.06-2-2.22-3.35-.02-.2-.03-.39-.02-.56.03-.8.37-1.32,1.06-1.64,2.85-1.34,7.77.37,13.86,4.83,4.12,3.01,7.63,6.43,8.6,7.4h0s.27.27.27.27c4.25,4.48,10.23,9.11,17.28,13.37,1.23.74,2.06,2,2.22,3.35.02.2.03.39.02.56Z"/>
  <path class="cls-1" d="M245.38,32.47c.25-5.85-9.37-15.85-23.41-24.34-1.23-.74-2.05-2-2.19-3.37-.02-.19-.03-.36-.02-.53.03-.8.37-1.32,1.06-1.64,2.85-1.34,7.77.37,13.86,4.83,4.15,3.04,7.68,6.48,8.62,7.43l1.53-1.49c-.95-.96-4.51-4.45-8.87-7.64-6.96-5.09-12.36-6.8-16.06-5.05-1.4.66-2.21,1.9-2.28,3.48-.02.41.02.85.1,1.32.05.27-.07.53-.3.67-.23.14-.52.13-.74-.03l-.54-.39c-6.96-5.09-12.36-6.8-16.06-5.05-1.4.66-2.21,1.9-2.28,3.48-.25,5.85,9.37,15.85,23.41,24.34,1.23.74,2.05,2,2.19,3.37.02.19.03.36.02.53-.03.8-.37,1.32-1.06,1.64-2.85,1.34-7.77-.37-13.86-4.83-4.18-3.05-7.68-6.48-8.62-7.43l-1.53,1.49c.95.96,4.5,4.44,8.87,7.64,6.93,5.07,12.37,6.79,16.06,5.05,1.4-.66,2.21-1.9,2.28-3.48.02-.41-.02-.85-.1-1.32-.05-.27.07-.53.3-.67.11-.07.23-.1.35-.1.14,0,.27.04.39.13l.54.39c6.93,5.07,12.37,6.79,16.06,5.05,1.4-.66,2.21-1.9,2.28-3.48ZM217.36,23.41c-4.84-3.26-8.82-6.55-11.83-9.78l-1.86-1.99,2.26,1.52c4.8,3.22,8.76,6.48,11.77,9.69l2.2,2.28-2.55-1.71ZM237.08,23.3c-4.84-3.26-8.82-6.55-11.83-9.78l-1.86-1.99,2.26,1.52c4.8,3.22,8.76,6.48,11.77,9.69l2.2,2.28-2.55-1.71ZM243.25,32.38c-.03.8-.37,1.32-1.06,1.64-.63.3-1.37.45-2.19.45-2.9,0-6.93-1.81-11.67-5.27-4.2-3.07-7.72-6.52-8.64-7.44h0s-.23-.24-.23-.24c-4.25-4.48-10.23-9.11-17.28-13.37-1.23-.74-2.06-2-2.22-3.35-.02-.2-.03-.39-.02-.56.03-.8.37-1.32,1.06-1.64,2.85-1.34,7.77.37,13.86,4.83,4.12,3.01,7.63,6.43,8.6,7.4h0s.27.27.27.27c4.25,4.48,10.23,9.11,17.28,13.37,1.23.74,2.06,2,2.22,3.35.02.2.03.39.02.56Z"/>
</svg>